<?xml version="1.0" standalone="no"?>
<!DOCTYPE svg PUBLIC "-//W3C//DTD SVG 20010904//EN"
 "http://www.w3.org/TR/2001/REC-SVG-20010904/DTD/svg10.dtd">
<svg version="1.0" xmlns="http://www.w3.org/2000/svg"
 width="1600.000000pt" height="1600.000000pt" viewBox="0 0 1600.000000 1600.000000"
 preserveAspectRatio="xMidYMid meet">

<g transform="translate(0.000000,1600.000000) scale(0.100000,-0.100000)"
fill="#fff" stroke="none">
<path d="M4311 13988 c-110 -14 -286 -62 -390 -106 -460 -199 -783 -592 -892
-1087 -19 -89 -22 -137 -26 -447 l-5 -348 -499 0 -499 0 0 -500 0 -500 1000 0
1000 0 0 778 c0 854 0 848 61 962 39 74 125 160 199 199 123 65 -172 61 3740
61 3912 0 3617 4 3740 -61 74 -39 160 -125 199 -199 66 -123 61 274 61 -4740
0 -5014 5 -4617 -61 -4740 -39 -74 -125 -160 -199 -199 -123 -65 172 -61
-3740 -61 -3912 0 -3617 -4 -3740 61 -74 39 -160 125 -199 199 -53 100 -61
155 -61 463 l0 277 -501 0 -501 0 5 -347 c4 -306 7 -359 26 -444 68 -311 196
-545 415 -765 221 -221 453 -346 770 -417 l101 -22 3685 0 3685 0 101 22 c315
70 550 197 770 417 219 220 348 456 416 766 l23 105 0 4685 0 4685 -22 101
c-70 315 -197 550 -417 770 -219 219 -447 343 -765 416 l-96 23 -3655 1
c-2209 1 -3684 -2 -3729 -8z"/>
<path d="M7845 10994 c-16 -2 -70 -9 -120 -15 -49 -6 -144 -25 -210 -41 -612
-153 -1128 -602 -1366 -1187 -148 -367 -186 -760 -108 -1144 68 -335 260 -713
482 -944 23 -24 39 -44 36 -46 -2 -2 -33 -21 -69 -42 -445 -264 -803 -618
-1070 -1061 -248 -411 -392 -885 -416 -1376 l-7 -138 501 0 502 0 0 50 c0 77
18 233 41 350 135 686 636 1259 1300 1488 510 176 1075 140 1550 -98 203 -101
359 -212 515 -367 346 -343 546 -775 586 -1270 l12 -153 500 0 499 0 -7 138
c-50 1008 -602 1913 -1486 2437 -36 21 -67 40 -69 41 -2 2 20 29 49 61 71 77
157 194 220 297 476 789 354 1783 -300 2436 -301 302 -677 495 -1100 565 -91
15 -402 28 -465 19z m320 -1009 c359 -58 649 -299 774 -641 43 -118 65 -266
58 -393 -26 -477 -361 -855 -826 -935 -421 -72 -843 128 -1045 495 -52 95 -94
215 -111 322 -111 685 466 1264 1150 1152z"/>
<path d="M3000 9500 l0 -500 -500 0 -500 0 0 -500 0 -500 1000 0 1000 0 0
1000 0 1000 -500 0 -500 0 0 -500z"/>
<path d="M3000 6500 l0 -500 -500 0 -500 0 0 -500 0 -500 1000 0 1000 0 0
1000 0 1000 -500 0 -500 0 0 -500z"/>
</g>
</svg>
